<svg width="50" height="50" viewBox="0 0 50 50" fill="none" xmlns="http://www.w3.org/2000/svg">
<g clip-path="url(#clip0_1_24)">
<path d="M39.4167 0H10.25C6.79687 0 4 2.79687 4 6.25V43.75C4 47.2031 6.79687 50 10.25 50H39.4167C42.8698 50 45.6667 47.2031 45.6667 43.75V6.25C45.6667 2.79687 42.8698 0 39.4167 0ZM41.5 43.75C41.5 44.901 40.5677 45.8333 39.4167 45.8333H10.25C9.09896 45.8333 8.16667 44.901 8.16667 43.75V6.25C8.16667 5.09895 9.09896 4.16667 10.25 4.16667H39.4167C40.5677 4.16667 41.5 5.09895 41.5 6.25V43.75ZM33.1667 35.4167H16.5C15.3494 35.4167 14.4167 36.3494 14.4167 37.5C14.4167 38.6506 15.3494 39.5833 16.5 39.5833H33.1667C34.3172 39.5833 35.25 38.6506 35.25 37.5C35.25 36.3494 34.3172 35.4167 33.1667 35.4167ZM33.1667 27.0833H16.5C15.3494 27.0833 14.4167 28.0161 14.4167 29.1667C14.4167 30.3172 15.3494 31.25 16.5 31.25H33.1667C34.3172 31.25 35.25 30.3172 35.25 29.1667C35.25 28.0161 34.3172 27.0833 33.1667 27.0833ZM33.1667 18.75H16.5C15.3494 18.75 14.4167 19.6828 14.4167 20.8333C14.4167 21.9839 15.3494 22.9167 16.5 22.9167H33.1667C34.3172 22.9167 35.25 21.9839 35.25 20.8333C35.25 19.6828 34.3172 18.75 33.1667 18.75ZM16.5 14.5833H24.8333C25.9839 14.5833 26.9167 13.6506 26.9167 12.5C26.9167 11.3494 25.9839 10.4167 24.8333 10.4167H16.5C15.3494 10.4167 14.4167 11.3494 14.4167 12.5C14.4167 13.6506 15.3494 14.5833 16.5 14.5833Z" fill="#6843B0"/>
</g>
<defs>
<clipPath id="clip0_1_24">
<rect width="41.6667" height="50" fill="white" transform="translate(4)"/>
</clipPath>
</defs>
</svg>
