<svg width="50" height="50" viewBox="0 0 50 50" fill="none" xmlns="http://www.w3.org/2000/svg">
<g clip-path="url(#clip0_1_22)">
<path d="M25.2835 44.8997C16.5347 44.8997 8.64896 39.054 6.13799 30.6974C5.7457 29.442 4.45103 28.7359 3.19554 29.1282C1.94005 29.5205 1.23387 30.8152 1.62629 32.0706C4.80413 42.5849 14.2984 49.6076 25.2835 49.6076C38.8972 49.6076 50 38.5049 50 24.8911C50 11.2773 38.8972 0.17462 25.2835 0.17462C17.5547 0.17462 10.2967 3.86244 5.66719 9.82582L4.68643 2.05778C4.52954 0.763108 3.35256 -0.139286 2.05789 0.0177364C0.763082 0.17462 -0.139175 1.3516 0.0177094 2.64627L1.86168 17.0054C2.01856 18.1823 3.03866 19.0454 4.17645 19.0454C4.25496 19.0454 4.37266 19.0454 4.45103 19.0454L18.6533 17.4368C19.948 17.28 20.8895 16.1421 20.7327 14.8474C20.5757 13.5528 19.438 12.6113 18.1433 12.7681L8.60978 13.8274C12.2976 8.29562 18.5355 4.88238 25.2836 4.88238C36.308 4.88238 45.2922 13.8666 45.2922 24.891C45.2922 35.9153 36.3078 44.8997 25.2835 44.8997Z" fill="#6843B0"/>
</g>
<defs>
<clipPath id="clip0_1_22">
<rect width="50" height="50" fill="white"/>
</clipPath>
</defs>
</svg>
