<svg width="50" height="50" viewBox="0 0 50 50" fill="none" xmlns="http://www.w3.org/2000/svg">
<g clip-path="url(#clip0_1_20)">
<path d="M43.7499 10.4216H42.1394C41.8061 9.93412 41.5061 9.5237 41.2498 9.21119C36.1726 2.4298 28.0954 -0.934855 19.6931 0.225586C9.28457 1.65687 1.04273 10.3091 0.0947948 20.801C-0.426049 26.572 1.21148 32.2617 4.70947 36.8243C5.70324 38.1243 6.24909 39.866 6.24909 41.7306V43.7536C6.24909 47.1995 9.05332 50.0037 12.4992 50.0037H27.0829C30.5288 50.0037 33.333 47.1995 33.333 43.7536H34.3622C39.5664 43.7536 44.0061 39.8639 44.6895 34.7013L44.8332 33.6096C44.9832 32.47 44.1832 31.4221 43.0415 31.2721C41.8998 31.1179 40.854 31.9242 40.704 33.0638L40.5602 34.1534C40.1498 37.2493 37.4852 39.5847 34.3622 39.5847H31.2496C30.0975 39.5847 29.1662 40.516 29.1662 41.6681V43.7515C29.1662 44.9015 28.2329 45.8349 27.0829 45.8349H12.4992C11.3492 45.8349 10.4158 44.9015 10.4158 43.7515V41.7285C10.4158 38.9535 9.56374 36.3097 8.01788 34.2888C5.15948 30.5575 3.81779 25.899 4.24488 21.1719C4.2553 21.0594 4.2678 20.9469 4.27821 20.8344H21.0952C22.0223 24.4261 25.2891 27.0845 29.1662 27.0845H43.7499C47.1958 27.0845 50 24.2803 50 20.8344V16.6676C50 13.2217 47.1958 10.4175 43.7499 10.4175V10.4216ZM20.2598 4.35484C26.5766 3.47982 32.6496 5.72153 36.8581 10.4216H29.1662C25.2891 10.4216 22.0223 13.08 21.0952 16.6718H5.23449C7.52828 10.2195 13.3013 5.31111 20.2577 4.35484H20.2598ZM45.8332 20.8385C45.8332 21.9885 44.8999 22.9219 43.7499 22.9219H29.1662C26.8683 22.9219 24.9995 21.0531 24.9995 18.7551C24.9995 16.4572 26.8683 14.5884 29.1662 14.5884H43.7499C44.8999 14.5884 45.8332 15.5217 45.8332 16.6718V20.8385Z" fill="#6843B0"/>
</g>
<defs>
<clipPath id="clip0_1_20">
<rect width="50" height="50" fill="white"/>
</clipPath>
</defs>
</svg>
