<svg width="40" height="40" viewBox="0 0 40 40" fill="none" xmlns="http://www.w3.org/2000/svg">
<g clip-path="url(#clip0_110_3)">
<path d="M19.8556 -0.0482262C19.7895 -0.0362069 19.7234 -0.0181782 19.6633 -0.000149246C18.9482 0.162111 18.4434 0.80514 18.4614 1.53831V6.1537C18.4554 6.70658 18.7438 7.22341 19.2246 7.50586C19.7054 7.7823 20.2943 7.7823 20.7751 7.50586C21.2559 7.22341 21.5443 6.70658 21.5383 6.1537V1.53831C21.5563 1.0936 21.376 0.666918 21.0575 0.366437C20.733 0.0599469 20.2943 -0.0902936 19.8556 -0.0482262ZM6.63446 5.38447C6.05754 5.48663 5.5948 5.9073 5.43254 6.4662C5.27028 7.0311 5.43855 7.63206 5.86523 8.0287L9.13446 11.2979C9.50706 11.7547 10.102 11.965 10.6789 11.8328C11.2498 11.7006 11.7006 11.2499 11.8328 10.6789C11.965 10.102 11.7547 9.50706 11.2979 9.13447L8.0287 5.86524C7.71019 5.52269 7.24745 5.34841 6.7787 5.38447C6.73062 5.38447 6.68254 5.38447 6.63446 5.38447ZM32.8845 5.38447C32.5359 5.43254 32.2114 5.60682 31.971 5.86524L28.7018 9.13447C28.245 9.50706 28.0347 10.102 28.1669 10.6789C28.2991 11.2499 28.7498 11.7006 29.3208 11.8328C29.8977 11.965 30.4926 11.7547 30.8652 11.2979L34.1345 8.0287C34.6152 7.57197 34.7535 6.85682 34.471 6.25586C34.1825 5.64889 33.5455 5.30033 32.8845 5.38447ZM19.9998 10.9614C15.0599 10.9614 11.0575 14.9638 11.0575 19.9037C11.0575 24.9758 15.4325 27.9265 15.4325 30.5287V31.1537C15.4325 31.7847 15.9614 32.3075 16.5864 32.3075H23.4133C24.0383 32.3075 24.5672 31.7847 24.5672 31.1537V30.5287C24.5672 27.9205 28.9422 25.0599 28.9422 19.9037C28.9422 14.9638 24.9398 10.9614 19.9998 10.9614ZM19.9998 13.9422C21.1297 13.9422 22.1813 14.2607 23.0768 14.8075C22.9686 14.8015 22.8484 14.7595 22.7402 14.7595C18.5395 14.7595 15.1441 18.1609 15.1441 22.3075C15.1441 22.566 15.1681 22.8244 15.1922 23.0768C14.5191 22.1333 14.0864 20.9494 14.0864 19.7114C14.0864 16.5083 16.7486 13.9422 19.9998 13.9422ZM1.10562 18.4614C0.258263 18.5816 -0.336689 19.3688 -0.216497 20.2162C-0.0963046 21.0636 0.690955 21.6585 1.53831 21.5383H6.1537C6.70658 21.5443 7.22341 21.2559 7.50586 20.7751C7.7823 20.2943 7.7823 19.7054 7.50586 19.2246C7.22341 18.7438 6.70658 18.4554 6.1537 18.4614H1.53831C1.49023 18.4614 1.44216 18.4614 1.39408 18.4614C1.346 18.4614 1.29793 18.4614 1.24985 18.4614C1.20177 18.4614 1.1537 18.4614 1.10562 18.4614ZM33.4133 18.4614C32.566 18.5816 31.971 19.3688 32.0912 20.2162C32.2114 21.0636 32.9986 21.6585 33.846 21.5383H38.4614C39.0143 21.5443 39.5311 21.2559 39.8135 20.7751C40.09 20.2943 40.09 19.7054 39.8135 19.2246C39.5311 18.7438 39.0143 18.4554 38.4614 18.4614H33.846C33.7979 18.4614 33.7498 18.4614 33.7018 18.4614C33.6537 18.4614 33.6056 18.4614 33.5575 18.4614C33.5095 18.4614 33.4614 18.4614 33.4133 18.4614ZM10.0479 28.221C9.69937 28.2691 9.37485 28.4434 9.13446 28.7018L5.86523 31.971C5.4085 32.3436 5.19817 32.9386 5.33038 33.5155C5.46259 34.0864 5.91331 34.5371 6.48422 34.6693C7.06115 34.8015 7.6561 34.5912 8.0287 34.1345L11.2979 30.8652C11.7547 30.4265 11.8929 29.7474 11.6465 29.1645C11.4061 28.5816 10.8232 28.209 10.1922 28.221C10.1441 28.221 10.096 28.221 10.0479 28.221ZM29.471 28.221C28.8941 28.3232 28.4313 28.7438 28.2691 29.3027C28.1068 29.8676 28.2751 30.4686 28.7018 30.8652L31.971 34.1345C32.3436 34.5912 32.9385 34.8015 33.5155 34.6693C34.0864 34.5371 34.5371 34.0864 34.6693 33.5155C34.8015 32.9386 34.5912 32.3436 34.1345 31.971L30.8652 28.7018C30.5768 28.3953 30.1801 28.227 29.7595 28.221C29.7114 28.221 29.6633 28.221 29.6152 28.221C29.5672 28.221 29.5191 28.221 29.471 28.221ZM16.5383 33.846C15.9073 33.846 15.3845 34.3628 15.3845 34.9999V37.3075C15.3845 37.9446 15.9073 38.4614 16.5383 38.4614H17.4998C18.0047 39.3448 18.9121 39.9518 19.9998 39.9518C21.0876 39.9518 21.995 39.3448 22.4998 38.4614H23.4614C24.0924 38.4614 24.6152 37.9446 24.6152 37.3075V34.9999C24.6152 34.3628 24.0924 33.846 23.4614 33.846H16.5383Z" fill="#6843B0"/>
</g>
<defs>
<clipPath id="clip0_110_3">
<rect width="40" height="40" fill="white"/>
</clipPath>
</defs>
</svg>
