<svg width="25" height="25" viewBox="0 0 25 25" fill="none" xmlns="http://www.w3.org/2000/svg">
<circle cx="12.5" cy="12.5" r="12.5" fill="#280075"/>
<g clip-path="url(#clip0_99_18)">
<path d="M9.41344 18.6649C12.8456 20.3424 16.9878 18.92 18.6652 15.4878C18.8058 15.2003 18.398 14.9421 18.129 15.1155C16.8495 15.9405 15.1822 16.0952 13.7146 15.3779C11.4837 14.2875 10.5591 11.5952 11.6495 9.36425C12.3668 7.89668 13.7774 6.99443 15.2938 6.85922C15.6126 6.8308 15.7757 6.37661 15.4881 6.23607C12.056 4.55859 7.91382 5.98103 6.23634 9.41317C4.55888 12.8453 5.9813 16.9875 9.41344 18.6649Z" fill="white"/>
</g>
<defs>
<clipPath id="clip0_99_18">
<rect width="16.6008" height="16.6008" fill="white" transform="translate(8.63818 1.34839) rotate(26.0473)"/>
</clipPath>
</defs>
</svg>
