<svg width="40" height="40" viewBox="0 0 40 40" fill="none" xmlns="http://www.w3.org/2000/svg">
<path fill-rule="evenodd" clip-rule="evenodd" d="M20 30C25.5228 30 30 25.5228 30 20C30 14.4771 25.5228 10 20 10C14.4771 10 10 14.4771 10 20C10 25.5228 14.4771 30 20 30ZM20 26.6667C23.6818 26.6667 26.6667 23.6818 26.6667 20C26.6667 16.3181 23.6818 13.3333 20 13.3333C16.3181 13.3333 13.3333 16.3181 13.3333 20C13.3333 23.6818 16.3181 26.6667 20 26.6667Z" fill="white"/>
<path d="M29.9999 8.33337C29.0794 8.33337 28.3333 9.07957 28.3333 10C28.3333 10.9205 29.0794 11.6667 29.9999 11.6667C30.9204 11.6667 31.6666 10.9205 31.6666 10C31.6666 9.07957 30.9204 8.33337 29.9999 8.33337Z" fill="white"/>
<path fill-rule="evenodd" clip-rule="evenodd" d="M2.75668 7.12673C1.66675 9.26584 1.66675 12.0661 1.66675 17.6666V22.3333C1.66675 27.9338 1.66675 30.7341 2.75668 32.8731C3.71541 34.7548 5.24521 36.2846 7.12685 37.2433C9.26596 38.3333 12.0662 38.3333 17.6667 38.3333H22.3334C27.9339 38.3333 30.7342 38.3333 32.8732 37.2433C34.7549 36.2846 36.2847 34.7548 37.2434 32.8731C38.3334 30.7341 38.3334 27.9338 38.3334 22.3333V17.6666C38.3334 12.0661 38.3334 9.26584 37.2434 7.12673C36.2847 5.24509 34.7549 3.71529 32.8732 2.75656C30.7342 1.66663 27.9339 1.66663 22.3334 1.66663H17.6667C12.0662 1.66663 9.26596 1.66663 7.12685 2.75656C5.24521 3.71529 3.71541 5.24509 2.75668 7.12673ZM22.3334 4.99996H17.6667C14.8115 4.99996 12.8705 5.00256 11.3702 5.12513C9.90881 5.24453 9.16148 5.46094 8.64015 5.72658C7.38573 6.36574 6.36586 7.38561 5.7267 8.64003C5.46106 9.16136 5.24465 9.90869 5.12525 11.3701C5.00268 12.8704 5.00008 14.8114 5.00008 17.6666V22.3333C5.00008 25.1886 5.00268 27.1295 5.12525 28.6298C5.24465 30.0913 5.46106 30.8386 5.7267 31.36C6.36586 32.6143 7.38573 33.6341 8.64015 34.2733C9.16148 34.539 9.90881 34.7555 11.3702 34.8748C12.8705 34.9973 14.8115 35 17.6667 35H22.3334C25.1887 35 27.1296 34.9973 28.6299 34.8748C30.0914 34.7555 30.8387 34.539 31.3601 34.2733C32.6144 33.6341 33.6342 32.6143 34.2734 31.36C34.5391 30.8386 34.7556 30.0913 34.8749 28.6298C34.9974 27.1295 35.0001 25.1886 35.0001 22.3333V17.6666C35.0001 14.8114 34.9974 12.8704 34.8749 11.3701C34.7556 9.90869 34.5391 9.16136 34.2734 8.64003C33.6342 7.38561 32.6144 6.36574 31.3601 5.72658C30.8387 5.46094 30.0914 5.24453 28.6299 5.12513C27.1296 5.00256 25.1887 4.99996 22.3334 4.99996Z" fill="white"/>
</svg>
