<svg width="40" height="40" viewBox="0 0 40 40" fill="none" xmlns="http://www.w3.org/2000/svg">
<path d="M39.0932 9.63996C38.6432 11.055 38.0365 12.2866 37.2765 13.405L37.3082 13.355C36.5616 14.5994 35.6699 16.0372 34.6332 17.6683C33.7443 18.9561 33.2738 19.6227 33.2215 19.6683C32.9916 19.9566 32.8316 20.31 32.7766 20.6983L32.7749 20.71C32.8199 21.0633 32.9832 21.3716 33.2215 21.6016L33.8882 22.345C37.4549 26.0105 39.461 28.5372 39.9065 29.925C39.9649 30.0783 39.9982 30.255 39.9982 30.44C39.9982 30.7633 39.8949 31.0616 39.7199 31.3066L39.7232 31.3016C39.4299 31.6033 39.0199 31.79 38.5665 31.79C38.5165 31.79 38.4649 31.7883 38.4165 31.7833H38.4232H34.0382C34.0365 31.7833 34.0332 31.7833 34.0299 31.7833C33.4682 31.7833 32.9515 31.5866 32.5465 31.26L32.5515 31.2633C31.9615 30.7783 31.4365 30.2533 30.9665 29.6833L30.9515 29.6633C30.1838 28.7955 29.5027 28.065 28.9082 27.4716C26.9282 25.5894 25.4671 24.6483 24.5249 24.6483C24.4899 24.645 24.4499 24.6433 24.4082 24.6433C24.1332 24.6433 23.8765 24.7283 23.6649 24.8733L23.6699 24.87C23.4965 25.0866 23.3915 25.3666 23.3915 25.6683C23.3915 25.7283 23.3949 25.785 23.4032 25.8433V25.8366C23.3582 26.36 23.3315 26.9683 23.3315 27.5833C23.3315 27.7816 23.3349 27.9783 23.3399 28.175V28.1466V30.0783C23.3565 30.1566 23.3665 30.2466 23.3665 30.3383C23.3665 30.7416 23.1832 31.1016 22.8965 31.34L22.8949 31.3416C22.2499 31.6366 21.4965 31.81 20.7015 31.81C20.5315 31.81 20.3649 31.8016 20.1999 31.7866L20.2215 31.7883C17.5982 31.7383 15.1649 30.97 13.0965 29.675L13.1549 29.7083C10.6365 28.1783 8.54988 26.1866 6.95988 23.8333L6.91488 23.7633C5.40488 21.76 3.99655 19.4966 2.79655 17.11L2.67988 16.8533C1.97822 15.5166 1.25155 13.8733 0.624883 12.1833L0.524883 11.875C0.269883 11.115 0.0848828 10.2316 0.00821615 9.31663L0.00488281 9.27496C0.00488281 8.43274 0.500438 8.01163 1.49155 8.01163H5.87488C5.91488 8.0083 5.96155 8.00663 6.00988 8.00663C6.42322 8.00663 6.80488 8.1483 7.10655 8.38663L7.10322 8.3833C7.43655 8.7483 7.68322 9.19663 7.80488 9.69663L7.80988 9.71663C8.61655 11.995 9.47155 13.9083 10.4549 15.7416L10.3432 15.5133C11.1465 17.13 12.0349 18.5216 13.0482 19.8066L13.0099 19.755C13.8988 20.8461 14.5921 21.3916 15.0899 21.3916C15.1049 21.3933 15.1232 21.3933 15.1432 21.3933C15.3899 21.3933 15.6049 21.26 15.7215 21.06L15.7232 21.0566C15.8465 20.74 15.9182 20.3716 15.9182 19.9883C15.9182 19.9066 15.9149 19.825 15.9082 19.745V19.755V13.29C15.8732 12.5283 15.6865 11.8166 15.3749 11.1783L15.3882 11.21C15.1815 10.77 14.9332 10.39 14.6382 10.0516L14.6432 10.0583C14.3699 9.78496 14.1832 9.42663 14.1249 9.02663L14.1232 9.01663C14.1232 8.7333 14.2532 8.4783 14.4565 8.31163L14.4582 8.30996C14.6599 8.12496 14.9299 8.0133 15.2249 8.0133H15.2382H22.1482C22.1849 8.0083 22.2265 8.00663 22.2699 8.00663C22.5949 8.00663 22.8865 8.1533 23.0799 8.3833L23.0815 8.38496C23.2532 8.6983 23.3549 9.0733 23.3549 9.46996C23.3549 9.5333 23.3515 9.59496 23.3465 9.65663V9.6483V18.27C23.3432 18.31 23.3415 18.3566 23.3415 18.4033C23.3415 18.71 23.4265 18.9983 23.5732 19.2433L23.5699 19.2366C23.6915 19.4166 23.8949 19.5333 24.1249 19.5333C24.4182 19.5133 24.6865 19.4166 24.9115 19.2633L24.9065 19.2666C25.3599 18.955 25.7499 18.6 26.0882 18.1983L26.0949 18.19C27.1065 17.0466 28.0399 15.7833 28.8532 14.44L28.9182 14.3233C29.4915 13.3733 30.1115 12.2033 30.6732 11.0016L30.7765 10.7566L31.5199 9.26996C31.7782 8.52663 32.4715 8.0033 33.2865 8.0033C33.3182 8.0033 33.3499 8.0033 33.3815 8.00496H33.3765H37.7615C38.946 8.00496 39.3904 8.54996 39.0949 9.63996H39.0932Z" fill="white"/>
</svg>
